<?xml version="1.0" standalone="no"?><!DOCTYPE svg PUBLIC "-//W3C//DTD SVG 1.1//EN"
        "http://www.w3.org/Graphics/SVG/1.1/DTD/svg11.dtd">
<svg t="1620466834074" class="icon" viewBox="0 0 1024 1024" version="1.1" xmlns="http://www.w3.org/2000/svg" p-id="5757"
     xmlns:xlink="http://www.w3.org/1999/xlink" width="200" height="200">
    <defs>
        <style type="text/css"></style>
    </defs>
    <path d="M981.187416 288.106878c-88.799504-12.758785-183.374253-22.01556-282.065399-27.217376l164.881182-164.881182-63.99872-63.99872-224.558709 224.558709c-21.01206-0.368633-42.146997-0.552949-63.445771-0.552949l0 0-255.99488-255.99488-63.99872 63.99872 194.187476 194.187476c-120.911502 4.239275-236.334473 14.52003-343.381292 29.920682-27.52457 107.722646-42.802344 226.750025-42.802344 351.880322s15.277774 244.157677 42.802344 351.880322c143.643847 20.643427 302.340193 32.111998 469.187416 32.111998s325.543569-11.448091 469.187416-32.111998c27.52457-107.722646 42.802344-226.750025 42.802344-351.880322s-15.277774-244.157677-42.802344-351.880322zM863.880322 874.580908c-107.722646 13.762285-226.750025 21.401172-351.880322 21.401172s-244.157677-7.638887-351.880322-21.401172c-20.643427-71.821924-32.111998-151.159857-32.111998-234.593708s11.448091-162.771785 32.111998-234.593708c107.722646-13.762285 226.750025-21.401172 351.880322-21.401172s244.157677 7.638887 351.880322 21.401172c20.663907 71.821924 32.111998 151.159857 32.111998 234.593708s-11.448091 162.771785-32.111998 234.593708z"
          p-id="5758" fill="#517DA2"></path>
</svg>