<?xml version="1.0" standalone="no"?><!DOCTYPE svg PUBLIC "-//W3C//DTD SVG 1.1//EN"
        "http://www.w3.org/Graphics/SVG/1.1/DTD/svg11.dtd">
<svg t="1617954314993" class="icon" viewBox="0 0 1024 1024" version="1.1" xmlns="http://www.w3.org/2000/svg" p-id="2226"
     xmlns:xlink="http://www.w3.org/1999/xlink" width="200" height="200">
    <defs>
        <style type="text/css"></style>
    </defs>
    <path d="M208.9,51.2h606.21c67.07,0 121.34,54.27 121.34,121.34v739.33c0,33.28 -27.14,60.42 -60.42,60.42 -8.19,0 -15.87,-1.54 -23.55,-4.61l-313.34,-132.1c-14.85,-6.14 -31.74,-6.14 -46.59,0l-320,132.61c-30.72,12.8 -66.56,-2.05 -79.36,-32.77 -3.07,-7.17 -4.61,-15.36 -4.61,-23.04V172.54C87.55,105.47 141.82,51.2 208.9,51.2zM512,632.83l136.7,67.07c11.78,5.63 26.62,1.02 32.26,-11.26 2.05,-4.1 3.07,-9.22 2.05,-13.82l-21.5,-151.04L768,414.72c9.22,-9.73 9.22,-25.09 -0.51,-34.3 -3.58,-3.58 -8.19,-5.63 -12.8,-6.66l-150.02,-25.6 -71.17,-134.66c-6.14,-11.78 -20.99,-16.38 -32.77,-10.24 -4.1,2.05 -7.68,5.63 -10.24,10.24L419.33,348.16l-150.02,25.6c-13.31,2.05 -22.02,14.85 -19.97,28.16 1.02,4.61 3.07,9.22 6.66,12.8l106.5,109.57 -21.5,151.04c-2.05,13.31 7.17,25.6 20.48,27.65 4.61,0.51 9.73,0 14.34,-2.05l136.19,-68.1z"
          p-id="2227" fill="#517DA2"></path>
</svg>