<?xml version="1.0" standalone="no"?><!DOCTYPE svg PUBLIC "-//W3C//DTD SVG 1.1//EN"
        "http://www.w3.org/Graphics/SVG/1.1/DTD/svg11.dtd">
<svg t="1619422827110" class="icon" viewBox="0 0 1024 1024" version="1.1" xmlns="http://www.w3.org/2000/svg" p-id="5966"
     xmlns:xlink="http://www.w3.org/1999/xlink" width="200" height="200">
    <defs>
        <style type="text/css"></style>
    </defs>
    <path d="M895.98704 384.021599c-35.198812 0-63.99784 28.799028-63.99784 63.99784v255.991361c0 35.198812 28.799028 63.99784 63.99784 63.99784s63.99784-28.799028 63.997841-63.99784v-255.991361c0-35.198812-28.799028-63.99784-63.997841-63.99784zM128.01296 384.021599c-35.198812 0-63.99784 28.799028-63.997841 63.99784v255.991361c0 35.198812 28.799028 63.99784 63.997841 63.99784s63.99784-28.799028 63.99784-63.99784v-255.991361c0-35.198812-28.799028-63.99784-63.99784-63.99784z m95.99676 351.988121a95.99676 95.99676 0 0 0 95.99676 95.99676v127.99568c0 35.198812 28.799028 63.99784 63.99784 63.99784s63.99784-28.799028 63.99784-63.99784v-127.99568h127.99568v127.99568c0 35.198812 28.799028 63.99784 63.99784 63.99784s63.99784-28.799028 63.99784-63.99784v-127.99568a95.99676 95.99676 0 0 0 95.99676-95.99676V384.021599H224.00972v351.988121zM798.198341 320.023759a287.798287 287.798287 0 0 0-129.627625-209.624925l32.030919-64.029839a31.99892 31.99892 0 0 0-57.246068-28.639033l-32.126916 64.28583-8.351718-3.327888C574.301897 69.184225 543.742929 64.032399 512 64.032399s-62.301897 5.151826-90.876933 14.655505l-8.351718 3.327888L380.644433 17.729962a31.99892 31.99892 0 0 0-57.246068 28.639033l32.030919 64.029839A287.862285 287.862285 0 0 0 225.801659 320.023759v31.99892H799.99028v-31.99892h-1.791939zM416.00324 256.025919a31.99892 31.99892 0 0 1-0.063998-63.99784h0.159995a31.99892 31.99892 0 0 1-0.063998 63.99784z m191.99352 0a31.99892 31.99892 0 0 1-0.063998-63.99784h0.159995a31.99892 31.99892 0 0 1-0.063998 63.99784z"
          p-id="5967" fill="#517DA2"></path>
</svg>