<svg xmlns="http://www.w3.org/2000/svg"
     width="128"
     height="128"
     viewBox="0 0 1024 1024">
    <path
            fill="#333333"
            d="M512,192c156.45,0 296.02,98.73 418.41,291.61a52.94,52.94 0,0 1,0 56.79C808.02,733.27 668.45,832 512,832c-156.45,0 -296.02,-98.73 -418.41,-291.61a52.94,52.94 0,0 1,0 -56.79C215.98,290.73 355.55,192 512,192zM512,320c-106.04,0 -192,85.96 -192,192s85.96,192 192,192 192,-85.96 192,-192 -85.96,-192 -192,-192zM512,640c70.69,0 128,-57.31 128,-128s-57.31,-128 -128,-128 -128,57.31 -128,128 57.31,128 128,128z"/>
</svg>
