<?xml version="1.0" standalone="no"?><!DOCTYPE svg PUBLIC "-//W3C//DTD SVG 1.1//EN"
        "http://www.w3.org/Graphics/SVG/1.1/DTD/svg11.dtd">
<svg t="1627050372797" class="icon" viewBox="0 0 1024 1024" version="1.1" xmlns="http://www.w3.org/2000/svg" p-id="3011"
     xmlns:xlink="http://www.w3.org/1999/xlink" width="128" height="128">
    <defs>
        <style type="text/css">@font-face { font-family: feedback-iconfont; src:
            url("//at.alicdn.com/t/font_1031158_1uhr8ri0pk5.eot?#iefix") format("embedded-opentype"),
            url("//at.alicdn.com/t/font_1031158_1uhr8ri0pk5.woff2") format("woff2"),
            url("//at.alicdn.com/t/font_1031158_1uhr8ri0pk5.woff") format("woff"),
            url("//at.alicdn.com/t/font_1031158_1uhr8ri0pk5.ttf") format("truetype"),
            url("//at.alicdn.com/t/font_1031158_1uhr8ri0pk5.svg#iconfont") format("svg"); }
        </style>
    </defs>
    <path d="M405.333333 458.666667H149.333333c-29.866667 0-53.333333-23.466667-53.333333-53.333334V149.333333c0-29.866667 23.466667-53.333333 53.333333-53.333333h256c29.866667 0 53.333333 23.466667 53.333334 53.333333v256c0 29.866667-23.466667 53.333333-53.333334 53.333334z m-245.333333-64h234.666667v-234.666667h-234.666667v234.666667zM874.666667 458.666667H618.666667c-29.866667 0-53.333333-23.466667-53.333334-53.333334V149.333333c0-29.866667 23.466667-53.333333 53.333334-53.333333h256c29.866667 0 53.333333 23.466667 53.333333 53.333333v256c0 29.866667-23.466667 53.333333-53.333333 53.333334z m-245.333334-64h234.666667v-234.666667h-234.666667v234.666667zM874.666667 928H618.666667c-29.866667 0-53.333333-23.466667-53.333334-53.333333V618.666667c0-29.866667 23.466667-53.333333 53.333334-53.333334h256c29.866667 0 53.333333 23.466667 53.333333 53.333334v256c0 29.866667-23.466667 53.333333-53.333333 53.333333z m-245.333334-64h234.666667v-234.666667h-234.666667v234.666667zM405.333333 928H149.333333c-29.866667 0-53.333333-23.466667-53.333333-53.333333V618.666667c0-29.866667 23.466667-53.333333 53.333333-53.333334h256c29.866667 0 53.333333 23.466667 53.333334 53.333334v256c0 29.866667-23.466667 53.333333-53.333334 53.333333z m-245.333333-64h234.666667v-234.666667h-234.666667v234.666667z"
          p-id="3012" fill="#1C2534"></path>
</svg>