<?xml version="1.0" standalone="no"?><!DOCTYPE svg PUBLIC "-//W3C//DTD SVG 1.1//EN"
	"http://www.w3.org/Graphics/SVG/1.1/DTD/svg11.dtd">
<svg t="1701003036248" class="icon" viewBox="0 0 1024 1024" version="1.1"
	xmlns="http://www.w3.org/2000/svg" p-id="5159" xmlns:xlink="http://www.w3.org/1999/xlink"
	width="128" height="128">
	<path
		d="M284.5696 682.1376c49.74592 31.232 110.03904 48.64 170.94656 52.87936-35.2768-17.29536-60.40576-20.87936-81.09056-52.59264-31.232-42.0352-30.976-99.1744-9.10336-144.96768 28.30336-61.96224 80.98816-111.104 138.30144-149.23776 19.03616-14.0288 44.48256-16.65024 65.93536-5.96992 55.57248 23.49056 115.31264 40.05888 176.40448 40.45824-23.94112-17.95072-52.93056-36.83328-57.15968-68.16768-4.62848-30.27968 14.86848-57.26208 34.67264-78.97088C784.65024 211.38432 867.08224 171.9296 942.08 125.25568c-236.26752 56.51456-434.80064 172.4928-601.9072 314.0096-26.39872 21.25824-52.0192 50.5344-88.64768 53.1968-24.70912-0.73728-34.85696-25.42592-36.37248-45.568-28.93824 41.96352-38.1952 97.57696-15.88224 144.22016 15.80032 39.03488 49.29536 68.56704 85.2992 91.02336z"
		fill="#028dd9" p-id="5160"></path>
	<path
		d="M589.63968 746.37312c-53.12512-16.1792-108.6976-0.84992-163.24608-6.2976-53.77024-5.36576-205.81376-46.47936-238.1824-155.55584-17.60256 180.55168 98.32448 243.64032 127.55968 255.39584-23.51104-2.99008-49.5616-6.31808-78.72512 4.98688 49.22368 10.91584 51.87584 26.7776 71.85408 25.56928a327.8336 327.8336 0 0 0 59.648-9.1648c122.63424 47.19616 269.38368-33.54624 283.8016-68.83328 11.85792-29.0304-33.19808-37.10976-62.70976-46.10048z m-20.736 56.9856a15.29856 15.29856 0 0 1-16.86528-5.87776c2.33472 1.3312 5.21216 1.78176 8.01792 0.9728 5.28384-1.52576 8.27392-6.8608 6.67648-11.90912-1.59744-5.04832-7.18848-7.89504-12.47232-6.36928-0.4608 0.13312-0.88064 0.32768-1.30048 0.52224 1.82272-2.14016 4.3008-3.80928 7.28064-4.66944 7.90528-2.28352 16.26112 1.97632 18.65728 9.5232 2.38592 7.55712-2.08896 15.52384-9.99424 17.80736z"
		fill="#163a7f" p-id="5161"></path>
</svg>